<!DOCTYPE svg PUBLIC "-//W3C//DTD SVG 1.1//EN" "http://www.w3.org/Graphics/SVG/1.1/DTD/svg11.dtd">
<!-- Uploaded to: SVG Repo, www.svgrepo.com, Transformed by: SVG Repo Mixer Tools -->
<svg fill="#ffffff" width="800px" height="800px" viewBox="-3.2 -3.2 38.40 38.40" version="1.1" xmlns="http://www.w3.org/2000/svg" stroke="#ffffff">
<g id="SVGRepo_bgCarrier" stroke-width="0">
<path transform="translate(-3.2, -3.2), scale(1.2)" d="M16,29.26242372393608C18.91200397067551,28.755627171128932,20.99067061933555,26.54600943514673,23.25904950383014,24.65099832500879C25.534307164813995,22.750240662581717,28.910669232896776,21.26953048755082,29.108656061197753,18.311409744416718C29.305856436249826,15.36503939745316,25.683400738742698,13.818308981406286,24.153112978038223,11.292798027396204C22.68043025310596,8.862355564806249,22.73828639822274,5.534339296908166,20.393638509397476,3.9285774061841767C17.692762264357626,2.0788480005378354,14.105011506080514,1.2236132232217858,11.010718733600603,2.292062381259692C7.893591872769453,3.3683960752052635,6.13686135821475,6.498852784315055,4.560832382377489,9.395593496660386C3.028708004681585,12.211637572811155,1.9343328407609817,15.235679944528089,2.231804116737031,18.42770440989847C2.551552708011347,21.85877627647261,3.5502545668741763,25.47874360462362,6.258248432646209,27.60976742855415C8.927037617966935,29.709939591737843,12.654241208094398,29.84470968210689,16,29.26242372393608" fill="#626464" strokewidth="0"/>
</g>
<g id="SVGRepo_tracerCarrier" stroke-linecap="round" stroke-linejoin="round"/>
<g id="SVGRepo_iconCarrier"> <title>database</title> <path d="M4 26.016q0 1.632 1.6 3.008t4.384 2.176 6.016 0.8 6.016-0.8 4.384-2.176 1.6-3.008v-3.392q0 1.632-1.632 2.88t-4.32 1.856-6.048 0.64-6.048-0.64-4.32-1.856-1.632-2.88v3.392zM4 20q0 1.632 1.6 3.008t4.384 2.208 6.016 0.8 6.016-0.8 4.384-2.208 1.6-3.008v-3.36q0 1.6-1.632 2.848t-4.32 1.888-6.048 0.64-6.048-0.64-4.32-1.888-1.632-2.848v3.36zM4 14.016q0 1.632 1.6 3.008t4.384 2.176 6.016 0.8 6.016-0.8 4.384-2.176 1.6-3.008v-3.392q0 1.632-1.632 2.88t-4.32 1.856-6.048 0.64-6.048-0.64-4.32-1.856-1.632-2.88v3.392zM4 8q0 1.632 1.6 3.008t4.384 2.208 6.016 0.8 6.016-0.8 4.384-2.208 1.6-3.008v-1.984q0-1.632-1.6-3.008t-4.384-2.176-6.016-0.832-6.016 0.832-4.384 2.176-1.6 3.008v1.984z"/> </g>
</svg>