<!DOCTYPE svg PUBLIC "-//W3C//DTD SVG 1.1//EN" "http://www.w3.org/Graphics/SVG/1.1/DTD/svg11.dtd">
<!-- Uploaded to: SVG Repo, www.svgrepo.com, Transformed by: SVG Repo Mixer Tools -->
<svg width="800px" height="800px" viewBox="-3.2 -3.2 38.40 38.40" enable-background="new 0 0 32 32" id="_x3C_Layer_x3E_" version="1.1" xml:space="preserve" xmlns="http://www.w3.org/2000/svg" xmlns:xlink="http://www.w3.org/1999/xlink" fill="#ffffff" stroke="#ffffff" stroke-width="1.6960000000000002">
<g id="SVGRepo_bgCarrier" stroke-width="0">
<path transform="translate(-3.2, -3.2), scale(1.2)" d="M16,29.593044467270374C19.086394379483018,29.644818565642275,22.545092647478917,30.25267973845935,24.94193129186555,28.30751256421919C27.315449228780924,26.381271434399835,27.318649649673727,22.874873384139708,27.960706717955226,19.886269193528893C28.53118972520511,17.230823143066996,28.99979098863102,14.613905729055777,28.455459769102802,11.952975795381935C27.854040546105892,9.012974642138555,27.224445640049286,5.650068594764527,24.712605917267535,4.008126735282804C22.22007501998246,2.3788066878350573,18.966497788026615,3.5516851528967965,16,3.8110786080360413C13.33030298251047,4.04451951479708,10.539773492210266,3.9271538119935983,8.328283316138764,5.440787857356325C6.082621215855978,6.97781056093757,4.735672881551424,9.478844719078658,3.924114560895367,12.076306971382744C3.119876576798985,14.650339856500315,3.2348417295473784,17.3283366438522,3.789542613338581,19.967418104938872C4.4056367157072565,22.898587986503415,4.921182274531174,26.15684117307535,7.273407578041091,28.011124036904988C9.653287468105248,29.887207289446245,12.969994528392792,29.542216289770693,16,29.593044467270374" fill="#e20303" strokewidth="0"/>
</g>
<g id="SVGRepo_tracerCarrier" stroke-linecap="round" stroke-linejoin="round"/>
<g id="SVGRepo_iconCarrier"> <g id="search_x2C__magnifier_x2C__magnifying_x2C__emoji_x2C__happy"> <g id="XMLID_1949_"> <g id="XMLID_2132_"> <path d="M12,14.521h2c0,0.55-0.45,1-1,1S12,15.07,12,14.521z" fill="#ff" id="XMLID_2137_"/> <path d="M17.5,13c0.27,0,0.5,0.23,0.5,0.5S17.77,14,17.5,14S17,13.77,17,13.5S17.23,13,17.5,13z " fill="#ff" id="XMLID_2134_"/> <path d="M8.5,13C8.77,13,9,13.23,9,13.5S8.77,14,8.5,14S8,13.77,8,13.5S8.23,13,8.5,13z" fill="#ff" id="XMLID_2133_"/> </g> </g> <g id="XMLID_1838_"> <g id="XMLID_4088_"> <line fill="none" id="XMLID_4094_" stroke="#ff455A64" stroke-linecap="round" stroke-linejoin="round" stroke-miterlimit="10" x1="23.43" x2="21.214" y1="23.401" y2="21.186"/> <path d=" M29.914,27.086l-3.5-3.5c-0.756-0.756-2.072-0.756-2.828,0C23.208,23.964,23,24.466,23,25s0.208,1.036,0.586,1.414l3.5,3.5 c0.378,0.378,0.88,0.586,1.414,0.586s1.036-0.208,1.414-0.586S30.5,29.034,30.5,28.5S30.292,27.464,29.914,27.086z" fill="none" id="XMLID_4093_" stroke="#ff455A64" stroke-linecap="round" stroke-linejoin="round" stroke-miterlimit="10"/> <circle cx="13" cy="13" fill="none" id="XMLID_4092_" r="11.5" stroke="#ff455A64" stroke-linecap="round" stroke-linejoin="round" stroke-miterlimit="10"/> <path d=" M12,14.521h2c0,0.55-0.45,1-1,1S12,15.07,12,14.521z" fill="none" id="XMLID_4091_" stroke="#ff455A64" stroke-linecap="round" stroke-linejoin="round" stroke-miterlimit="10"/> <path d=" M17.5,13c0.27,0,0.5,0.23,0.5,0.5S17.77,14,17.5,14S17,13.77,17,13.5S17.23,13,17.5,13z" fill="none" id="XMLID_4090_" stroke="#ff455A64" stroke-linecap="round" stroke-linejoin="round" stroke-miterlimit="10"/> <path d=" M8.5,13C8.77,13,9,13.23,9,13.5S8.77,14,8.5,14S8,13.77,8,13.5S8.23,13,8.5,13z" fill="none" id="XMLID_4089_" stroke="#ff455A64" stroke-linecap="round" stroke-linejoin="round" stroke-miterlimit="10"/> </g> <g id="XMLID_3004_"> <line fill="none" id="XMLID_4087_" stroke="#ff" stroke-linecap="round" stroke-linejoin="round" stroke-miterlimit="10" x1="23.43" x2="21.214" y1="23.401" y2="21.186"/> <path d=" M29.914,27.086l-3.5-3.5c-0.756-0.756-2.072-0.756-2.828,0C23.208,23.964,23,24.466,23,25s0.208,1.036,0.586,1.414l3.5,3.5 c0.378,0.378,0.88,0.586,1.414,0.586s1.036-0.208,1.414-0.586S30.5,29.034,30.5,28.5S30.292,27.464,29.914,27.086z" fill="none" id="XMLID_3009_" stroke="#ff" stroke-linecap="round" stroke-linejoin="round" stroke-miterlimit="10"/> <circle cx="13" cy="13" fill="none" id="XMLID_3008_" r="11.5" stroke="#ff" stroke-linecap="round" stroke-linejoin="round" stroke-miterlimit="10"/> <path d=" M12,14.521h2c0,0.55-0.45,1-1,1S12,15.07,12,14.521z" fill="none" id="XMLID_3007_" stroke="#ff" stroke-linecap="round" stroke-linejoin="round" stroke-miterlimit="10"/> <path d=" M17.5,13c0.27,0,0.5,0.23,0.5,0.5S17.77,14,17.5,14S17,13.77,17,13.5S17.23,13,17.5,13z" fill="none" id="XMLID_3006_" stroke="#ff" stroke-linecap="round" stroke-linejoin="round" stroke-miterlimit="10"/> <path d=" M8.5,13C8.77,13,9,13.23,9,13.5S8.77,14,8.5,14S8,13.77,8,13.5S8.23,13,8.5,13z" fill="none" id="XMLID_3005_" stroke="#ff" stroke-linecap="round" stroke-linejoin="round" stroke-miterlimit="10"/> </g> </g> </g> </g>
</svg>