<?xml version="1.0" encoding="iso-8859-1"?>
<!-- Uploaded to: SVG Repo, www.svgrepo.com, Generator: SVG Repo Mixer Tools -->
<svg version="1.1" id="Layer_1" xmlns="http://www.w3.org/2000/svg" xmlns:xlink="http://www.w3.org/1999/xlink" 
	 viewBox="0 0 512 512" xml:space="preserve">
<rect x="130.977" y="41.674" style="fill:#EDEDED;" width="214.326" height="154.791"/>
<rect x="238.14" y="41.674" style="fill:#D8D8DA;" width="35.721" height="95.256"/>
<polygon style="fill:#B29A7E;" points="261.953,41.674 261.953,125.023 214.326,125.023 214.326,41.674 130.977,41.674 
	130.977,196.465 345.302,196.465 345.302,41.674 "/>
<rect x="297.674" y="41.674" style="fill:#A58868;" width="47.628" height="154.791"/>
<polygon style="fill:#EDEDED;" points="35.721,196.465 190.512,184.558 238.14,184.558 404.837,196.465 404.837,363.163 
	35.721,363.163 "/>
<polygon style="fill:#D8D8DA;" points="250.047,279.814 214.326,279.814 214.326,184.558 238.14,184.558 250.047,196.465 "/>
<polygon style="fill:#BFA993;" points="238.14,184.558 238.14,267.907 190.512,267.907 190.512,184.558 35.721,184.558 
	35.721,363.163 404.837,363.163 404.837,184.558 "/>
<rect x="345.302" y="184.558" style="fill:#B29A7E;" width="59.535" height="178.605"/>
<polygon style="fill:#EDEDED;" points="476.279,41.674 392.93,125.023 392.93,351.256 0,351.256 0,398.884 440.558,398.884 
	440.558,148.837 512,77.395 "/>
<polygon style="fill:#D8D8DA;" points="494.14,59.535 416.744,136.93 416.744,398.884 440.558,398.884 440.558,148.837 512,77.395 
	"/>
<circle style="fill:#797781;" cx="107.163" cy="398.884" r="71.442"/>
<circle style="fill:#EDEDED;" cx="107.163" cy="398.884" r="23.814"/>
<circle style="fill:#797781;" cx="333.395" cy="398.884" r="71.442"/>
<g>
	<path style="fill:#58575D;" d="M107.163,327.442c-6.167,0-12.152,0.781-17.86,2.252c30.813,7.931,53.581,35.902,53.581,69.19
		s-22.769,61.26-53.581,69.19c5.708,1.469,11.694,2.252,17.86,2.252c39.456,0,71.442-31.986,71.442-71.442
		S146.619,327.442,107.163,327.442z"/>
	<path style="fill:#58575D;" d="M333.395,327.442c-6.167,0-12.152,0.781-17.86,2.252c30.813,7.931,53.581,35.902,53.581,69.19
		s-22.769,61.26-53.581,69.19c5.708,1.469,11.694,2.252,17.86,2.252c39.456,0,71.442-31.986,71.442-71.442
		S372.852,327.442,333.395,327.442z"/>
</g>
<circle style="fill:#EDEDED;" cx="333.395" cy="398.884" r="23.814"/>
<g>
	<path style="fill:#D8D8DA;" d="M107.163,375.07c-4.342,0-8.402,1.181-11.907,3.211c7.111,4.12,11.907,11.793,11.907,20.603
		s-4.796,16.483-11.907,20.603c3.505,2.03,7.564,3.211,11.907,3.211c13.152,0,23.814-10.661,23.814-23.814
		S120.315,375.07,107.163,375.07z"/>
	<path style="fill:#D8D8DA;" d="M333.395,375.07c-4.342,0-8.402,1.181-11.907,3.211c7.111,4.12,11.907,11.793,11.907,20.603
		s-4.796,16.483-11.907,20.603c3.505,2.03,7.564,3.211,11.907,3.211c13.152,0,23.814-10.661,23.814-23.814
		S346.548,375.07,333.395,375.07z"/>
</g>
</svg>